<svg width="71" height="71" viewBox="0 0 71 71" fill="none" xmlns="http://www.w3.org/2000/svg">
<circle cx="37.5" cy="37.5" r="33.5" fill="#F0F0F0"/>
<circle cx="33.5" cy="33.5" r="33.25" stroke="#2CB49B" stroke-width="0.5"/>
<circle cx="35.5" cy="35.5" r="33.5" fill="#3DDABE"/>
<path d="M50.0237 42.6526H41.9345C41.9151 42.733 41.9037 43.5196 41.9037 43.606C41.9037 44.1944 42.3808 44.6715 42.9692 44.6715H44.9136V47.4702H44.0919C43.5034 47.4702 43.0264 47.9473 43.0264 48.5357C43.0264 49.1242 43.5034 49.6012 44.0919 49.6012H44.9136V49.9195C44.9136 50.508 45.3906 50.985 45.9791 50.985C46.5675 50.985 47.0446 50.508 47.0446 49.9195V49.6012H47.8663C48.4547 49.6012 48.9318 49.1242 48.9318 48.5357C48.9318 47.9473 48.4547 47.4702 47.8663 47.4702H47.0446V44.6715H48.9889C49.5774 44.6715 50.0545 44.1944 50.0545 43.606C50.0545 43.5195 50.0431 42.733 50.0237 42.6526Z" fill="white"/>
<path d="M45.9791 21.015C42.5842 21.015 39.8223 23.777 39.8223 27.1719C39.8223 29.4805 41.0998 31.4961 42.9849 32.5498H48.9734C50.8584 31.4961 52.136 29.4805 52.136 27.1719C52.136 23.777 49.374 21.015 45.9791 21.015Z" fill="white"/>
<path d="M52.9345 34.6808H39.0236C38.4352 34.6808 37.9581 35.1579 37.9581 35.7463V39.4669C37.9581 40.0494 38.4303 40.5216 39.0128 40.5216H52.9453C53.5278 40.5216 54 40.0494 54 39.4669V35.7463C54 35.1579 53.5229 34.6808 52.9345 34.6808Z" fill="white"/>
<path d="M30.0656 42.6526H21.9764C21.9569 42.733 21.9456 43.5196 21.9456 43.606C21.9456 44.1944 22.4226 44.6715 23.0111 44.6715H24.9554V47.4702H24.1338C23.5453 47.4702 23.0682 47.9473 23.0682 48.5357C23.0682 49.1242 23.5453 49.6012 24.1338 49.6012H24.9554V49.9195C24.9554 50.508 25.4325 50.985 26.0209 50.985C26.6094 50.985 27.0865 50.508 27.0865 49.9195V49.6012H27.9081C28.4966 49.6012 28.9736 49.1242 28.9736 48.5357C28.9736 47.9473 28.4966 47.4702 27.9081 47.4702H27.0865V44.6715H29.0309C29.6193 44.6715 30.0964 44.1944 30.0964 43.606C30.0964 43.5195 30.085 42.733 30.0656 42.6526Z" fill="white"/>
<path d="M26.0209 21.015C22.626 21.015 19.864 23.777 19.864 27.1719C19.864 29.4805 21.1415 31.4961 23.0266 32.5498H29.0152C30.9002 31.4961 32.1777 29.4805 32.1777 27.1719C32.1777 23.777 29.4158 21.015 26.0209 21.015Z" fill="white"/>
<path d="M32.9763 34.6808H19.0655C18.4771 34.6808 18 35.1579 18 35.7463V39.4669C18 40.0494 18.4722 40.5216 19.0547 40.5216H32.9872C33.5696 40.5216 34.0419 40.0494 34.0419 39.4669V35.7463C34.0419 35.1579 33.5648 34.6808 32.9763 34.6808Z" fill="white"/>
</svg>
