<svg width="71" height="71" viewBox="0 0 71 71" fill="none" xmlns="http://www.w3.org/2000/svg">
<circle cx="37.5" cy="37.5" r="33.5" fill="#F0F0F0"/>
<circle cx="33.5" cy="33.5" r="33.25" stroke="#2CB49B" stroke-width="0.5"/>
<circle cx="35.5" cy="35.5" r="33.5" fill="#3DDABE"/>
<path d="M30 31.5C29.1716 31.5 28.5 32.1716 28.5 33V39C28.5 39.8284 29.1716 40.4999 30 40.4999H42C42.8284 40.4999 43.5 39.8284 43.5 39V33C43.5 32.1716 42.8284 31.5 42 31.5H30Z" fill="white"/>
<path d="M39.0001 28.4999H51.0001C51.8285 28.4999 52.5001 27.8284 52.5001 27V21C52.5001 20.1716 51.8285 19.5 51.0001 19.5H39.0001C38.1717 19.5 37.5001 20.1716 37.5001 21V27C37.5001 27.8284 38.1717 28.4999 39.0001 28.4999Z" fill="white"/>
<path d="M21 28.4999H33C33.8284 28.4999 34.5 27.8284 34.5 27V21C34.5 20.1716 33.8284 19.5 33 19.5H21C20.1716 19.5 19.5 20.1716 19.5 21V27C19.4999 27.8284 20.1716 28.4999 21 28.4999Z" fill="white"/>
<path d="M51 43.5H39.0001C38.1717 43.5 37.5001 44.1716 37.5001 45V51C37.5001 51.8284 38.1717 52.4999 39.0001 52.4999H51.0001C51.8285 52.4999 52.5001 51.8284 52.5001 51V45C52.5001 44.1716 51.8285 43.5 51 43.5Z" fill="white"/>
<path d="M32.9999 43.5H21C20.1716 43.5 19.5 44.1716 19.5 45V51C19.5 51.8284 20.1716 52.4999 21 52.4999H33C33.8284 52.4999 34.5 51.8284 34.5 51V45C34.5 44.1716 33.8284 43.5 32.9999 43.5Z" fill="white"/>
<path d="M48.0001 31.5C47.1717 31.5 46.5001 32.1716 46.5001 33V39C46.5001 39.8284 47.1717 40.4999 48.0001 40.4999H54.0001V31.5H48.0001Z" fill="white"/>
<path d="M25.5 39V33C25.5 32.1716 24.8285 31.5 24 31.5H18V40.5H24C24.8284 40.4999 25.5 39.8284 25.5 39Z" fill="white"/>
</svg>
